{"title":"Jorge Drexler - Toque De Queda (h264/mp4)","uid":7080460,"size":94402522,"categoryP":"video","categoryS":"music_videos","magnet":"?xt=urn:btih:9a600d30834e5081a09b145a4deab4840e954a36&amp;dn=Jorge+Drexler+-+Toque+De+Queda+%28h264%2Fmp4%29&amp;tr=udp%3A%2F%2Ftracker.openbittorrent.com%3A80&amp;tr=udp%3A%2F%2Fopen.demonii.com%3A1337&amp;tr=udp%3A%2F%2Ftracker.coppersurfer.tk%3A6969&amp;tr=udp%3A%2F%2Fexodus.desync.com%3A6969","seeders":1,"leechers":1,"uploader":"MusicVideos-HQ","files":1,"time":1331007939,"description":"General\n\n\nFormat                           : MPEG-4\nFormat profile                   : Base Media\nCodec ID                         : isom\nFile size                        : 90.0 MiB\nDuration                         : 3mn 52s\nOverall bit rate                 : 3 248 Kbps\nEncoded date                     : UTC 2012-03-03 16:26:28\nTagged date                      : UTC 2012-03-03 16:26:28\n\nVideo\nID                               : 1\nFormat                           : AVC\nFormat/Info                      : Advanced Video Codec\nFormat profile                   : &lt;a class=&quot;__cf_email__&quot; href=&quot;/cdn-cgi/l/email-protection&quot; data-cfemail=&quot;561e3f313e161a657866&quot;&gt;[email&amp;#160;protected]&lt;/a&gt;&lt;script cf-hash='f9e31' type=&quot;text/javascript&quot;&gt;\n/* &lt;![CDATA[ */!function(){try{var t=&quot;currentScript&quot;in document?document.currentScript:function(){for(var t=document.getElementsByTagName(&quot;script&quot;),e=t.length;e--;)if(t[e].getAttribute(&quot;cf-hash&quot;))return t[e]}();if(t&amp;&amp;t.previousSibling){var e,r,n,i,c=t.previousSibling,a=c.getAttribute(&quot;data-cfemail&quot;);if(a){for(e=&quot;&quot;,r=parseInt(a.substr(0,2),16),n=2;a.length-n;n+=2)i=parseInt(a.substr(n,2),16)^r,e+=String.fromCharCode(i);e=document.createTextNode(e),c.parentNode.replaceChild(e,c)}}}catch(u){}}();/* ]]&gt; */&lt;/script&gt;\nFormat settings, CABAC           : Yes\nFormat settings, ReFrames        : 2 frames\nCodec ID                         : avc1\nCodec ID/Info                    : Advanced Video Coding\nDuration                         : 3mn 52s\nBit rate mode                    : Variable\nBit rate                         : 3 165 Kbps\nMaximum bit rate                 : 7 088 Kbps\nWidth                            : 720 pixels\nHeight                           : 480 pixels\nDisplay aspect ratio             : 4:3\nOriginal display aspect ratio    : 4:3\nFrame rate mode                  : Constant\nFrame rate                       : 29.970 fps\nStandard                         : NTSC\nColor space                      : YUV\nChroma subsampling               : 4:2:0\nBit depth                        : 8 bits\nScan type                        : Progressive\nBits/(Pixel*Frame)               : 0.306\nStream size                      : 87.9 MiB (98%)\n\n\nAudio\nID                               : 2\nFormat                           : AAC\nFormat/Info                      : Advanced Audio Codec\nFormat profile                   : LC\nCodec ID                         : 40\nDuration                         : 3mn 52s\nBit rate mode                    : Variable\nBit rate                         : 66.15 Kbps\nMaximum bit rate                 : 79.8 Kbps\nChannel(s)                       : 2 channels\nChannel positions                : Front: L R\nSampling rate                    : 48.0 KHz\nCompression mode                 : Lossy\nStream size                      : 1.86 MiB (2%)\n\n\n","torrent":{"xt":"urn:btih:9a600d30834e5081a09b145a4deab4840e954a36","amp;dn":"Jorge+Drexler+-+Toque+De+Queda+%28h264%2Fmp4%29","amp;tr":["udp%3A%2F%2Ftracker.openbittorrent.com%3A80","udp%3A%2F%2Fopen.demonii.com%3A1337","udp%3A%2F%2Ftracker.coppersurfer.tk%3A6969","udp%3A%2F%2Fexodus.desync.com%3A6969"],"infoHash":"9a600d30834e5081a09b145a4deab4840e954a36","infoHashBuffer":{"type":"Buffer","data":[154,96,13,48,131,78,80,129,160,155,20,90,77,234,180,132,14,149,74,54]},"announce":[],"urlList":[]}}